<svg version="1.1" id="Layer_1" xmlns="http://www.w3.org/2000/svg" xmlns:xlink="http://www.w3.org/1999/xlink" x="0px" y="0px"
	 width="100%" viewBox="0 0 800 800" enable-background="new 0 0 800 800" xml:space="preserve">
<path fill="#000000" opacity="1.000000" stroke="none" 
	d="
M421.022888,350.784302 
	C438.456787,360.017426 447.199585,374.221588 446.178772,393.581543 
	C445.249969,411.196259 436.289520,424.063171 420.318451,431.557190 
	C391.269440,445.187744 358.169006,423.703613 357.557098,391.666870 
	C356.935547,359.125824 390.611694,337.123596 421.022888,350.784302 
z"/>
<path fill="#000000" opacity="1.000000" stroke="none" 
	d="
M343.426819,506.482178 
	C344.950470,502.736145 346.351013,499.353210 347.711975,495.954407 
	C353.528625,481.428436 367.477386,472.757172 381.454590,474.992035 
	C397.677399,477.585938 408.856903,489.447662 408.991486,506.213684 
	C409.225342,535.338562 409.561371,564.480042 408.358643,593.600037 
	C408.170410,598.158020 405.120636,601.125671 400.803314,601.255310 
	C396.292908,601.390747 392.674011,598.438293 392.526093,593.715698 
	C392.020599,577.579834 391.952911,561.439819 392.349213,545.292297 
	C392.671875,532.146851 392.791351,518.984680 392.507294,505.840637 
	C392.347473,498.445099 386.640717,492.739075 379.412720,491.491241 
	C373.033203,490.389893 366.435120,494.439453 363.404785,501.629364 
	C352.738403,526.936890 342.160889,552.281982 331.535522,577.606812 
	C330.893402,579.137268 330.320251,580.750427 329.381866,582.092041 
	C327.158142,585.271240 324.062836,586.561829 320.246674,585.392090 
	C316.425262,584.220886 314.619415,581.540710 314.629761,577.530701 
	C314.635071,575.466064 315.268341,573.614990 316.046051,571.762573 
	C325.131256,550.123291 334.207153,528.480103 343.426819,506.482178 
z"/>
<path fill="#000000" opacity="1.000000" stroke="none" 
	d="
M522.387573,280.387695 
	C511.446533,291.377991 500.707703,302.071381 490.083862,312.877808 
	C483.805847,319.263733 482.807129,325.621399 486.719574,332.297546 
	C490.745789,339.167816 498.313965,341.303528 506.753937,337.807220 
	C523.670227,330.799591 540.560974,323.730408 557.456299,316.672363 
	C566.057434,313.079224 574.638611,309.438202 583.242188,305.850983 
	C589.157349,303.384644 594.119690,304.757843 596.097534,309.346527 
	C598.165405,314.144135 595.946655,318.513672 589.975647,321.014130 
	C564.183960,331.814789 538.408081,342.654419 512.555115,353.306732 
	C497.337097,359.577057 481.814728,355.076721 473.248016,342.265930 
	C464.730560,329.528778 466.499756,313.132507 477.900421,301.609528 
	C497.459412,281.840698 517.130859,262.183014 536.778809,242.502319 
	C541.282288,237.991287 546.435181,237.491013 549.880737,241.097687 
	C553.446838,244.830521 552.970154,249.635391 548.372681,254.296173 
	C539.835632,262.950806 531.220581,271.528564 522.387573,280.387695 
z"/>
<path fill="#000000" opacity="1.000000" stroke="none" 
	d="
M205.562637,463.936218 
	C206.852951,461.085114 209.124084,460.027313 211.453293,459.065735 
	C237.304077,448.393829 263.088135,437.555756 289.036133,427.125519 
	C305.518707,420.500061 321.881897,425.999817 329.742737,440.160980 
	C336.465332,452.271606 335.051788,467.148071 325.221924,477.180634 
	C305.060699,497.757507 284.536133,517.979248 264.085663,538.271179 
	C260.101959,542.224060 254.915634,542.417114 251.590225,539.175354 
	C247.840729,535.520325 248.064377,530.987061 252.573624,526.467957 
	C271.982727,507.016815 291.473053,487.646759 310.911163,468.224518 
	C316.918488,462.222107 318.566437,455.890015 315.839508,449.783752 
	C312.383667,442.045380 304.242401,438.899597 295.667511,442.373840 
	C271.601593,452.124634 247.597610,462.028320 223.569489,471.872375 
	C221.413055,472.755890 219.292679,473.740814 217.097687,474.514465 
	C209.304047,477.261444 203.901474,472.515015 205.562637,463.936218 
z"/>
<path fill="#000000" opacity="1.000000" stroke="none" 
	d="
M550.842651,537.565857 
	C545.709717,543.013306 541.617676,542.997253 536.192993,537.589722 
	C516.615662,518.074524 497.109344,498.488098 477.527405,478.977600 
	C470.837646,472.312256 463.010620,471.735962 456.555695,477.228668 
	C451.496002,481.534119 449.792145,488.077606 452.384766,494.415405 
	C462.402924,518.905579 472.504395,543.361694 482.576324,567.829895 
	C483.399811,569.830383 484.303741,571.800842 485.050873,573.829163 
	C486.984009,579.077271 485.255005,583.419250 480.539978,585.337708 
	C476.034363,587.171082 472.271606,585.409363 469.846375,580.068848 
	C467.851532,575.676270 466.079529,571.181763 464.240814,566.719238 
	C455.301239,545.022827 446.210449,523.386841 437.486053,501.604156 
	C429.000000,480.416565 440.516632,460.316956 462.994720,457.283875 
	C472.130676,456.051117 480.599548,458.861450 487.253357,465.451019 
	C507.840363,485.839233 528.272522,506.383759 548.761353,526.871033 
	C551.724426,529.833801 553.072876,533.166016 550.842651,537.565857 
z"/>
<path fill="#000000" opacity="1.000000" stroke="none" 
	d="
M258.237579,257.751740 
	C256.278992,255.680344 254.425140,253.974075 252.892303,252.016464 
	C249.869949,248.156509 250.127396,243.783859 253.341599,240.773743 
	C256.561279,237.758530 261.502991,237.742508 265.061615,241.205963 
	C272.458191,248.404785 279.661530,255.802444 286.930237,263.132324 
	C299.591888,275.900604 312.215942,288.706238 324.909973,301.442169 
	C331.053558,307.606049 338.008392,308.664886 344.297333,304.586884 
	C351.026154,300.223755 353.070374,293.214691 349.733948,284.926727 
	C339.355774,259.146271 328.869232,233.409470 318.461487,207.640884 
	C316.066986,201.712402 317.321442,197.321060 321.797516,195.336517 
	C326.621124,193.197891 331.029358,195.341812 333.493866,201.352661 
	C344.225281,227.525803 355.021271,253.674072 365.501862,279.947845 
	C371.406433,294.749969 366.299713,310.438843 353.527435,318.580872 
	C340.895935,326.633118 324.854004,324.725464 313.765381,313.631958 
	C295.284943,295.143494 276.907990,276.551605 258.237579,257.751740 
z"/>
<path fill="#000000" opacity="1.000000" stroke="none" 
	d="
M298.462555,359.689514 
	C296.237427,356.140289 293.274597,354.140839 289.798157,352.674500 
	C264.933075,342.186737 240.089417,331.648285 215.242218,321.118164 
	C213.709015,320.468384 212.135040,319.871796 210.698929,319.044128 
	C206.805954,316.800629 205.304504,312.165710 207.100006,308.285950 
	C208.816132,304.577667 212.972946,302.781555 217.232864,304.188293 
	C220.071838,305.125824 222.788330,306.438416 225.549026,307.608185 
	C249.935410,317.941193 274.393768,328.109192 298.673553,338.686981 
	C311.268982,344.174377 318.488586,356.924072 317.117645,369.678955 
	C315.604095,383.760284 306.136932,394.582794 292.422119,397.710327 
	C290.177521,398.222137 287.800232,398.327759 285.484589,398.325226 
	C258.152985,398.295502 230.821472,398.212097 203.489975,398.131622 
	C201.824509,398.126709 200.145584,398.143768 198.496552,397.949829 
	C193.266937,397.334808 190.528290,394.276917 190.698273,389.385284 
	C190.867096,384.526733 193.767334,381.753754 199.248032,381.722992 
	C212.913376,381.646271 226.579651,381.722565 240.245529,381.754120 
	C254.910980,381.787964 269.599091,381.358856 284.234161,382.047882 
	C294.717438,382.541473 304.818939,370.768494 298.462555,359.689514 
z"/>
<path fill="#000000" opacity="1.000000" stroke="none" 
	d="
M519.354370,430.570679 
	C542.907654,440.393463 566.106628,450.072357 589.298035,459.769531 
	C595.132690,462.209259 597.381287,466.263214 595.565979,470.931091 
	C593.651306,475.854553 589.037476,477.449280 583.046631,474.961517 
	C556.603027,463.980469 530.143311,453.035889 503.785736,441.850983 
	C490.158295,436.068176 482.939423,421.685516 485.773865,407.022278 
	C488.546417,392.679047 501.173706,381.880615 515.874573,381.825195 
	C544.353638,381.717865 572.833740,381.845184 601.313293,381.934326 
	C608.170532,381.955780 611.425354,384.792816 611.311768,390.303680 
	C611.200562,395.699799 607.901550,398.281067 600.936279,398.287079 
	C573.622009,398.310699 546.307678,398.293518 518.993408,398.319855 
	C509.722717,398.328766 503.816803,402.497925 502.226471,410.040405 
	C500.553345,417.975403 504.166534,423.948181 513.031494,427.872650 
	C515.010193,428.748596 517.008118,429.581055 519.354370,430.570679 
z"/>
<path fill="#000000" opacity="1.000000" stroke="none" 
	d="
M486.493469,203.011902 
	C484.177429,212.459122 479.911285,220.780640 476.407227,229.391113 
	C468.565826,248.659729 460.736450,267.935883 452.608093,287.084137 
	C447.395844,299.362823 434.525116,307.165405 422.396271,306.035034 
	C407.568726,304.653229 396.578217,295.360229 393.300018,281.355927 
	C392.924438,279.751373 392.714172,278.069183 392.710358,276.422302 
	C392.642914,247.293396 392.598083,218.164413 392.603638,189.035431 
	C392.604828,182.866730 395.422974,179.676376 400.517975,179.723312 
	C405.633667,179.770416 408.312958,182.942520 408.373749,189.111816 
	C408.649353,217.074814 408.890045,245.038162 409.188782,273.000916 
	C409.284821,281.990387 413.635223,287.563568 421.628723,289.191864 
	C428.304077,290.551666 434.953827,286.444702 438.253723,278.546722 
	C448.777130,253.359863 459.192535,228.127884 469.649872,202.913437 
	C469.968689,202.144730 470.294617,201.378937 470.609467,200.608627 
	C472.238708,196.622574 475.124634,194.301178 479.499847,194.878738 
	C483.824097,195.449554 486.284271,198.139267 486.493469,203.011902 
z"/>
</svg>