<?xml version="1.0" encoding="UTF-8"?>
<!-- Generated by Pixelmator Pro 3.6.14 -->
<svg width="4180" height="892" viewBox="0 0 4180 892" xmlns="http://www.w3.org/2000/svg">
    <g id="Group">
        <path id="Rounded-Rectangle" fill="#2dc50e" fill-rule="evenodd" stroke="none" d="M 1087.892212 748.852905 C 1087.942749 823.418152 1148.430664 883.824219 1222.99585 883.773743 L 1835.660889 883.358826 C 1910.226074 883.308289 1970.632202 822.820313 1970.581665 748.255127 L 1970.166748 135.590149 C 1970.116211 61.025024 1909.628174 0.618896 1835.06311 0.669373 L 1222.398071 1.08429 C 1147.832886 1.134827 1087.426758 61.622803 1087.477295 136.187988 Z"/>
        <path id="path1" fill="#20a5ff" fill-rule="evenodd" stroke="none" d="M 2148.913086 751.336304 C 2148.963623 825.901489 2209.45166 886.307556 2284.016846 886.25708 L 2898.883789 885.840637 C 2973.44873 885.790161 3033.85498 825.302185 3033.804443 750.737 L 3033.387939 135.870117 C 3033.337646 61.304932 2972.849609 0.898804 2898.284424 0.949341 L 2283.41748 1.365723 C 2208.852295 1.41626 2148.446289 61.904236 2148.496826 136.469421 Z"/>
        <path id="path2" fill="#ffd34f" fill-rule="evenodd" stroke="none" d="M 3250.859619 748.992126 C 3250.910156 823.557312 3311.398193 883.963379 3385.963379 883.912903 L 3999.232178 883.497559 C 4073.797363 883.447083 4134.203613 822.959106 4134.152832 748.393921 L 4133.737793 135.124939 C 4133.687012 60.559692 4073.199219 0.153625 3998.634033 0.204163 L 3385.36499 0.619446 C 3310.799805 0.669983 3250.393799 61.157898 3250.444336 135.723145 Z"/>
        <linearGradient id="linearGradient1" x1="482.876606" y1="885.483363" x2="482.876606" y2="6.208608" gradientUnits="userSpaceOnUse" gradientTransform="matrix(1 -0.000677 0.000677 1 -0.301837 0.327129)">
            <stop offset="0" stop-color="#dc2b20" stop-opacity="1"/>
            <stop offset="1" stop-color="#dc5262" stop-opacity="1"/>
        </linearGradient>
        <path id="path3" fill="url(#linearGradient1)" fill-rule="evenodd" stroke="none" d="M 37.913902 750.772522 C 37.964401 825.337708 98.452377 885.743835 173.017578 885.693298 L 793.331177 885.273193 C 867.896301 885.222717 928.302368 824.734741 928.251892 750.169556 L 927.839294 140.919434 C 927.788757 66.354248 867.300842 5.94812 792.735657 5.998657 L 172.422089 6.418762 C 97.856888 6.469238 37.45079 66.957214 37.501289 141.5224 Z"/>
    </g>
    <g id="coin">
        <text id="I" transform="matrix(1 -0.000781 0.000781 1 -0.346967 2.015231)" xml:space="preserve" x="2461" y="706" font-family="Montserrat" font-size="721" font-weight="700" fill="#1e1b2e">I</text>
        <text id="O" transform="matrix(1 -0.000781 0.000781 1 -0.347284 1.201855)" xml:space="preserve" x="1233" y="706" font-family="Montserrat" font-size="721" font-weight="700" fill="#1e1b2e">O</text>
        <text id="C" transform="matrix(1 -0.000781 0.000781 1 -0.347617 0.34945)" xml:space="preserve" x="184" y="706" font-family="Montserrat" font-size="721" font-weight="700" fill="#1e1b2e">C</text>
        <text id="N" transform="matrix(1 -0.000781 0.000781 1 -0.345067 2.883247)" xml:space="preserve" x="3400" y="704" font-family="Montserrat" font-size="721" font-weight="700" fill="#1e1b2e">N</text>
    </g>
</svg>
