<?xml version="1.0" encoding="UTF-8"?>
<!-- Generated by Pixelmator Pro 3.6.14 -->
<svg width="736" height="736" viewBox="0 0 736 736" xmlns="http://www.w3.org/2000/svg">
    <g id="Group-copy-3">
        <path id="Path" fill="#ffffff" fill-rule="evenodd" stroke="none" d="M 735 368.5 C 735 165.5354 570.4646 1 367.5 1 C 164.535355 1 0 165.5354 0 368.5 C 0 571.464661 164.535355 736 367.5 736 C 570.4646 736 735 571.464661 735 368.5 Z"/>
        <path id="path1" fill="#f2a93c" fill-rule="evenodd" stroke="none" d="M 718 368 C 718 174.700317 561.299683 18 368 18 C 174.700333 18 18 174.700317 18 368 C 18 561.299683 174.700333 718 368 718 C 561.299683 718 718 561.299683 718 368 Z"/>
        <text id="text1" xml:space="preserve" x="203.512207" y="530" font-family="Helvetica" font-size="450" font-weight="700" fill="#ffffff">₡</text>
    </g>
    <g id="Group-copy">
        <path id="path2" fill="#f2a93c" fill-rule="evenodd" stroke="none" visibility="hidden" d="M 735 368.5 C 735 165.5354 570.4646 1 367.5 1 C 164.535355 1 0 165.5354 0 368.5 C 0 571.464661 164.535355 736 367.5 736 C 570.4646 736 735 571.464661 735 368.5 Z"/>
        <path id="path3" fill="#ffffff" fill-rule="evenodd" stroke="none" visibility="hidden" d="M 718 368 C 718 174.700317 561.299683 18 368 18 C 174.700333 18 18 174.700317 18 368 C 18 561.299683 174.700333 718 368 718 C 561.299683 718 718 561.299683 718 368 Z"/>
        <text id="text2" visibility="hidden" xml:space="preserve" x="203.512207" y="530" font-family="Helvetica" font-size="450" font-weight="700" fill="#f2a93c">₡</text>
    </g>
</svg>
